<svg xmlns="http://www.w3.org/2000/svg" width="1024" height="1024" viewBox="0 0 1024 1024" role="img" aria-label="Southwood">
  <!--
    Southwood app icon — the master. Every PNG in public/ is rendered from
    this file (scripts/build-icons.md), so the mark can be re-exported
    without being redrawn.

    REDRAWN 2026-09-27 from the R to an S, when the app stopped being called
    Rally (the name was taken several times over, the LTA's booking service
    among them). Everything but the letter is the R's: cream #F4EFE3 on the
    #16271F field, a gold #E9C46A ball, the same 92 stroke with round caps,
    the same 0.92 scale onto the same optical centre.

    THE S IS ONE SMOOTH STROKE OF CUBIC CURVES. The first S (same day)
    was built from the R's parts — two stadium bowls with flat top, spine
    and foot — and Sam called it "wonky and weird": straight runs make an S
    read as blocky, halfway to a 5. This one is a classic monoline S: round
    bowls, a spine that runs diagonally down to the right, the lower bowl a
    touch wider than the upper as type does it, terminals that open out
    rather than hook. Chosen from three drawn and compared side by side.

    Geometry on the 1024 master, stroke centre lines:
      spans       x 302..642, y 257..767 — the R's height exactly
      ball        centre (818, 703) r 108, clear of the lower bowl
    Mark plus ball spans x 256..926, centre 591, which the transform moves
    onto the optical centre (502, 512).

    The ball's seams are clipped to the circle so their round caps cannot
    give it horns. No rounded corners: iOS and Android apply their own mask.
  -->
  <defs>
    <linearGradient id="sw-field" x1="0" y1="0" x2="0" y2="1">
      <stop offset="0" stop-color="#1E3529"/>
      <stop offset="1" stop-color="#12211A"/>
    </linearGradient>
    <clipPath id="sw-ball-clip">
      <circle cx="818" cy="703" r="108"/>
    </clipPath>
  </defs>

  <rect width="1024" height="1024" fill="url(#sw-field)"/>

  <g transform="translate(502 512) scale(0.92) translate(-591 -512)">
    <g fill="none" stroke="#F4EFE3" stroke-width="92" stroke-linecap="round" stroke-linejoin="round">
      <path d="M626 322C598 280 545 257 474 257C382 257 322 304 322 376C322 448 380 478 474 503C572 529 642 566 642 648C642 728 574 767 474 767C386 767 326 736 302 690"/>
    </g>
    <circle cx="818" cy="703" r="108" fill="#E9C46A"/>
    <g clip-path="url(#sw-ball-clip)" fill="none" stroke="#16271F" stroke-width="15" stroke-linecap="round">
      <path d="M715.4 669.5Q772.6 657.6 784.5 600.4"/>
      <path d="M920.6 736.5Q863.4 748.4 851.5 805.6"/>
    </g>
  </g>
</svg>
